<svg width="12" height="13" viewBox="0 0 12 13" fill="none" xmlns="http://www.w3.org/2000/svg">
<rect width="12" height="13" fill="#E6E6E6"/>
<g id="04_Homepage" clip-path="url(#clip0_460_39913)">
<rect width="1920" height="6864" transform="translate(-840 -3856)" fill="white"/>
<g id="Featured Products">
<g id="Product 5n" filter="url(#filter0_d_460_39913)">
<rect x="-12" y="-303" width="264" height="327" fill="white"/>
<rect x="-12" y="-303" width="264" height="327" stroke="#2C742F"/>
<g id="Product Info">
<g id="Rating">
<g id="Star 1">
<g id="Group">
<path id="Vector" d="M6.20672 9.44066L8.5711 10.9384C8.87335 11.1297 9.24835 10.845 9.15872 10.4922L8.47585 7.80529C8.45656 7.73044 8.45878 7.65168 8.48227 7.57804C8.50575 7.50441 8.54954 7.43889 8.6086 7.38904L10.7288 5.62466C11.0071 5.39291 10.8638 4.93054 10.5057 4.90729L7.7371 4.72729C7.66255 4.722 7.59105 4.69565 7.5309 4.6513C7.47075 4.60695 7.42444 4.54643 7.39735 4.47679L6.3646 1.87654C6.33648 1.80264 6.28656 1.73903 6.22146 1.69416C6.15636 1.64928 6.07916 1.62524 6.0001 1.62524C5.92103 1.62524 5.84383 1.64928 5.77873 1.69416C5.71364 1.73903 5.66372 1.80264 5.6356 1.87654L4.60285 4.47679C4.57581 4.5465 4.52952 4.6071 4.46937 4.65152C4.40922 4.69594 4.33768 4.72234 4.2631 4.72766L1.49447 4.90766C1.13672 4.93054 0.992723 5.39291 1.27135 5.62466L3.3916 7.38941C3.45059 7.43924 3.49434 7.50469 3.51782 7.57825C3.5413 7.65181 3.54356 7.7305 3.52435 7.80529L2.89135 10.2972C2.78372 10.7205 3.2341 11.0622 3.59635 10.8323L5.79385 9.44066C5.85561 9.4014 5.92728 9.38054 6.00047 9.38054C6.07366 9.38054 6.14533 9.4014 6.2071 9.44066H6.20672Z" fill="#FF8A00"/>
</g>
</g>
</g>
</g>
</g>
</g>
</g>
<defs>
<filter id="filter0_d_460_39913" x="-24.5" y="-315.5" width="289" height="352" filterUnits="userSpaceOnUse" color-interpolation-filters="sRGB">
<feFlood flood-opacity="0" result="BackgroundImageFix"/>
<feColorMatrix in="SourceAlpha" type="matrix" values="0 0 0 0 0 0 0 0 0 0 0 0 0 0 0 0 0 0 127 0" result="hardAlpha"/>
<feOffset/>
<feGaussianBlur stdDeviation="6"/>
<feColorMatrix type="matrix" values="0 0 0 0 0.12691 0 0 0 0 0.708333 0 0 0 0 0.149059 0 0 0 0.32 0"/>
<feBlend mode="normal" in2="BackgroundImageFix" result="effect1_dropShadow_460_39913"/>
<feBlend mode="normal" in="SourceGraphic" in2="effect1_dropShadow_460_39913" result="shape"/>
</filter>
<clipPath id="clip0_460_39913">
<rect width="1920" height="6864" fill="white" transform="translate(-840 -3856)"/>
</clipPath>
</defs>
</svg>
